<svg width="82" height="56" viewBox="0 0 82 56" fill="none" xmlns="http://www.w3.org/2000/svg">
<path d="M22.4219 20.0156C24.349 20.0156 26.25 20.3542 28.125 21.0312L23.3594 45.7188C23.2031 46.3438 23.125 46.9948 23.125 47.6719C23.125 48.974 23.3854 49.625 23.9062 49.625C24.5573 49.625 25.3385 49.1693 26.25 48.2578C27.1615 47.3203 27.9427 46.526 28.5938 45.875L29.0625 45.3281C29.1667 45.3281 29.362 45.5755 29.6484 46.0703C29.9349 46.5651 30.0781 46.9167 30.0781 47.125C29.6354 47.8802 28.8281 48.8438 27.6562 50.0156C26.5104 51.1875 25.2604 52.2292 23.9062 53.1406C22.5521 54.026 21.3281 54.4688 20.2344 54.4688C19.401 54.4688 18.75 54.0911 18.2812 53.3359C17.8125 52.5807 17.5781 51.6042 17.5781 50.4062C17.5781 49.599 17.7604 48.2188 18.125 46.2656L18.3984 44.8984C18.4766 44.5339 18.5156 44.3125 18.5156 44.2344C18.099 45.0156 17.5 45.9792 16.7188 47.125C15.9375 48.2448 15.0391 49.3646 14.0234 50.4844C13.0078 51.6042 11.9401 52.5417 10.8203 53.2969C9.70052 54.026 8.59375 54.3906 7.5 54.3906C5.20833 54.3906 3.39844 53.362 2.07031 51.3047C0.742188 49.2474 0.078125 46.7604 0.078125 43.8438C0.078125 40.1198 1.1849 36.4089 3.39844 32.7109C4.88281 30.2109 6.65365 28.0104 8.71094 26.1094C10.7943 24.2083 13.0208 22.724 15.3906 21.6562C17.7604 20.5625 20.1042 20.0156 22.4219 20.0156ZM19.1406 23.6094C17.6042 23.6094 16.0547 24.1562 14.4922 25.25C12.9297 26.3177 11.4974 27.763 10.1953 29.5859C8.89323 31.3828 7.83854 33.388 7.03125 35.6016C6.25 37.7891 5.85938 39.9896 5.85938 42.2031C5.85938 47.3073 7.1875 49.8594 9.84375 49.8594C10.7812 49.8594 11.7969 49.3385 12.8906 48.2969C13.9844 47.2552 15.0651 45.875 16.1328 44.1562C17.2005 42.4375 18.138 40.5755 18.9453 38.5703C19.7786 36.5391 20.3906 34.5469 20.7812 32.5938L22.3438 24.625C21.7188 23.9479 20.651 23.6094 19.1406 23.6094ZM36.6406 46.2656L43.9844 8.375C44.1406 7.59375 44.2188 6.86458 44.2188 6.1875C44.2188 5.19792 42.6302 4.70312 39.4531 4.70312C39.2969 4.70312 39.2188 4.54688 39.2188 4.23438C39.2188 3.60938 39.4271 3.08854 39.8438 2.67188C43.3333 2.35938 46.6667 1.63021 49.8438 0.484375C50.1562 0.640625 50.3125 1.13542 50.3125 1.96875C50.3125 2.54167 49.974 4.49479 49.2969 7.82812L41.875 45.7188C41.7188 46.3438 41.6406 46.9948 41.6406 47.6719C41.6406 48.974 41.901 49.625 42.4219 49.625C42.7344 49.625 43.112 49.4818 43.5547 49.1953C43.9974 48.9089 44.4531 48.5573 44.9219 48.1406C45.3906 47.724 45.9245 47.1901 46.5234 46.5391C47.1224 45.862 47.474 45.4583 47.5781 45.3281C47.7344 45.3281 47.9427 45.5755 48.2031 46.0703C48.4635 46.5651 48.5938 46.9167 48.5938 47.125C48.151 47.8802 47.3438 48.8438 46.1719 50.0156C45.026 51.1875 43.776 52.2292 42.4219 53.1406C41.0677 54.026 39.8438 54.4688 38.75 54.4688C37.9688 54.4688 37.3307 54.0911 36.8359 53.3359C36.3411 52.5807 36.0938 51.6042 36.0938 50.4062C36.0938 49.599 36.276 48.2188 36.6406 46.2656ZM56.0156 46.2656L63.3594 8.375C63.5156 7.59375 63.5938 6.86458 63.5938 6.1875C63.5938 5.19792 62.0052 4.70312 58.8281 4.70312C58.6719 4.70312 58.5938 4.54688 58.5938 4.23438C58.5938 3.60938 58.8021 3.08854 59.2188 2.67188C62.7083 2.35938 66.0417 1.63021 69.2188 0.484375C69.5312 0.640625 69.6875 1.13542 69.6875 1.96875C69.6875 2.54167 69.349 4.49479 68.6719 7.82812L61.25 45.7188C61.0938 46.3438 61.0156 46.9948 61.0156 47.6719C61.0156 48.974 61.276 49.625 61.7969 49.625C62.1094 49.625 62.487 49.4818 62.9297 49.1953C63.3724 48.9089 63.8281 48.5573 64.2969 48.1406C64.7656 47.724 65.2995 47.1901 65.8984 46.5391C66.4974 45.862 66.849 45.4583 66.9531 45.3281C67.1094 45.3281 67.3177 45.5755 67.5781 46.0703C67.8385 46.5651 67.9688 46.9167 67.9688 47.125C67.526 47.8802 66.7188 48.8438 65.5469 50.0156C64.401 51.1875 63.151 52.2292 61.7969 53.1406C60.4427 54.026 59.2188 54.4688 58.125 54.4688C57.3438 54.4688 56.7057 54.0911 56.2109 53.3359C55.7161 52.5807 55.4688 51.6042 55.4688 50.4062C55.4688 49.599 55.651 48.2188 56.0156 46.2656ZM81.4062 49.5469C81.4062 50.9531 80.8724 52.2292 79.8047 53.375C78.737 54.5208 77.5521 55.0938 76.25 55.0938C75.2604 55.0938 74.4401 54.7422 73.7891 54.0391C73.138 53.3359 72.8125 52.4635 72.8125 51.4219C72.8125 50.0156 73.3594 48.7656 74.4531 47.6719C75.5469 46.5781 76.7448 46.0312 78.0469 46.0312C79.0365 46.0312 79.8438 46.3568 80.4688 47.0078C81.0938 47.6589 81.4062 48.5052 81.4062 49.5469Z" fill="black"/>
</svg>
