<svg width="56" height="56" viewBox="0 0 56 56" fill="none" xmlns="http://www.w3.org/2000/svg">
<path d="M18.6667 7C12.2511 7 7 12.2511 7 18.6667V37.3333C7 43.7489 12.2511 49 18.6667 49H37.3333C43.7489 49 49 43.7489 49 37.3333V18.6667C49 12.2511 43.7489 7 37.3333 7H18.6667ZM18.6667 11.6667H37.3333C41.2265 11.6667 44.3333 14.7735 44.3333 18.6667V37.3333C44.3333 41.2265 41.2265 44.3333 37.3333 44.3333H18.6667C14.7735 44.3333 11.6667 41.2265 11.6667 37.3333V18.6667C11.6667 14.7735 14.7735 11.6667 18.6667 11.6667ZM39.6667 14C39.0478 14 38.4543 14.2458 38.0167 14.6834C37.5792 15.121 37.3333 15.7145 37.3333 16.3333C37.3333 16.9522 37.5792 17.5457 38.0167 17.9832C38.4543 18.4208 39.0478 18.6667 39.6667 18.6667C40.2855 18.6667 40.879 18.4208 41.3166 17.9832C41.7542 17.5457 42 16.9522 42 16.3333C42 15.7145 41.7542 15.121 41.3166 14.6834C40.879 14.2458 40.2855 14 39.6667 14ZM28 16.3333C24.3056 16.3333 21.2377 17.8028 19.2546 20.0339C17.2714 22.2649 16.3333 25.1481 16.3333 28C16.3333 30.8519 17.2714 33.7351 19.2546 35.9661C21.2377 38.1972 24.3056 39.6667 28 39.6667C31.6944 39.6667 34.7623 38.1972 36.7454 35.9661C38.7286 33.7351 39.6667 30.8519 39.6667 28C39.6667 25.1481 38.7286 22.2649 36.7454 20.0339C34.7623 17.8028 31.6944 16.3333 28 16.3333ZM28 21C30.5278 21 32.1266 21.8639 33.2546 23.1328C34.3825 24.4017 35 26.1852 35 28C35 29.8148 34.3825 31.5983 33.2546 32.8672C32.1266 34.1361 30.5278 35 28 35C25.4722 35 23.8734 34.1361 22.7454 32.8672C21.6175 31.5983 21 29.8148 21 28C21 26.1852 21.6175 24.4017 22.7454 23.1328C23.8734 21.8639 25.4722 21 28 21Z" fill="white"/>
</svg>
