<svg width="56" height="56" viewBox="0 0 56 56" fill="none" xmlns="http://www.w3.org/2000/svg">
<path d="M45.6231 6.99306C45.0352 7.02041 44.4815 7.19131 43.9893 7.38271H43.9825C43.4834 7.58095 41.1114 8.579 37.5088 10.0897C33.9063 11.6073 29.2305 13.5761 24.5889 15.5311C15.3194 19.4345 6.20706 23.2763 6.20706 23.2763L6.31644 23.2353C6.31644 23.2353 5.68753 23.4403 5.03128 23.8915C4.69632 24.1103 4.32718 24.411 4.00589 24.8827C3.6846 25.3544 3.42483 26.079 3.52054 26.8241C3.67776 28.0888 4.49808 28.8476 5.08597 29.2645C5.68069 29.6884 6.24808 29.8866 6.24808 29.8866H6.26175L14.8067 32.7645C15.1895 33.995 17.4112 41.2958 17.9444 42.9774C18.2588 43.9823 18.5664 44.6112 18.9492 45.0897C19.1338 45.3358 19.3526 45.5409 19.6123 45.705C19.7149 45.7665 19.8242 45.8144 19.9336 45.8554C19.9678 45.8759 20.002 45.8827 20.043 45.8895L19.9541 45.869C19.9815 45.8759 20.002 45.8964 20.0225 45.9032C20.0909 45.9237 20.1387 45.9306 20.2276 45.9442C21.5811 46.3544 22.668 45.5136 22.668 45.5136L22.7295 45.4657L27.7744 40.872L36.2305 47.3593L36.4219 47.4413C38.1856 48.2138 39.9698 47.7831 40.9131 47.0243C41.8633 46.2587 42.2325 45.2812 42.2325 45.2812L42.294 45.1239L48.8291 11.6483C49.0137 10.8212 49.0616 10.0487 48.8565 9.29677C48.6514 8.54482 48.125 7.84072 47.4893 7.46474C46.8467 7.08193 46.211 6.96572 45.6231 6.99306ZM45.4453 10.5819C45.4385 10.6913 45.459 10.6776 45.4112 10.8895V10.9101L38.9375 44.037C38.9102 44.0849 38.8623 44.1874 38.7325 44.2899C38.5957 44.3993 38.4864 44.4677 37.919 44.2421L27.5762 36.3124L21.3282 42.0067L22.6407 33.6259C22.6407 33.6259 38.8418 18.5253 39.5391 17.8759C40.2364 17.2265 40.0039 17.0897 40.0039 17.0897C40.0518 16.2968 38.9512 16.8573 38.9512 16.8573L17.6436 30.0575L17.6367 30.0233L7.42386 26.5849V26.578C7.41702 26.578 7.40335 26.5712 7.39651 26.5712C7.40335 26.5712 7.4512 26.5507 7.4512 26.5507L7.50589 26.5233L7.56058 26.5028C7.56058 26.5028 16.6797 22.661 25.9492 18.7577C30.5909 16.8026 35.2666 14.8339 38.8623 13.3163C42.458 11.8056 45.1172 10.6981 45.2676 10.6366C45.4112 10.5819 45.3428 10.5819 45.4453 10.5819Z" fill="white"/>
</svg>
