<svg width="47" height="47" viewBox="0 0 47 47" fill="none" xmlns="http://www.w3.org/2000/svg">
<path d="M17.39 42.2999C10.9106 42.2999 5.64001 37.0294 5.64001 30.5499C5.64001 24.0705 10.9106 18.8 17.39 18.8V22.5599C12.9842 22.5599 9.40001 26.1442 9.40001 30.5499C9.40001 34.9557 12.9842 38.5399 17.39 38.5399C21.7958 38.5399 25.38 34.9557 25.38 30.5499V4.69995H29.14V30.5499C29.14 37.0294 23.8694 42.2999 17.39 42.2999Z" fill="white"/>
<path d="M38.54 17.86C32.7938 17.86 25.38 11.4783 25.38 4.69995H29.14C29.14 9.14803 34.7433 14.1 38.54 14.1V17.86Z" fill="white"/>
<path d="M22.09 44.1798C15.6106 44.1798 10.34 38.9093 10.34 32.4298C10.34 25.9504 15.6106 20.6798 22.09 20.6798V24.4398C17.6842 24.4398 14.1 28.0241 14.1 32.4298C14.1 36.8356 17.6842 40.4198 22.09 40.4198C26.4958 40.4198 30.08 36.8356 30.08 32.4298V6.57983H33.84V32.4298C33.84 38.9093 28.5694 44.1798 22.09 44.1798Z" fill="black"/>
<path d="M43.24 19.7398C37.4938 19.7398 30.08 13.3582 30.08 6.57983H33.84C33.84 11.0279 39.4434 15.9798 43.24 15.9798V19.7398Z" fill="black"/>
<path d="M19.27 44.1798C12.7906 44.1798 7.52002 38.9093 7.52002 32.4298C7.52002 25.9504 12.7906 20.6798 19.27 20.6798V24.4398C14.8642 24.4398 11.28 28.0241 11.28 32.4298C11.28 36.8356 14.8642 40.4198 19.27 40.4198C23.6758 40.4198 27.26 36.8356 27.26 32.4298V6.57983H31.02V32.4298C31.02 38.9093 25.7494 44.1798 19.27 44.1798Z" fill="white"/>
<path d="M40.42 19.7398C34.6738 19.7398 27.26 13.3582 27.26 6.57983H31.02C31.02 11.0279 36.6234 15.9798 40.42 15.9798V19.7398Z" fill="white"/>
</svg>
