<svg width="179" height="134" viewBox="0 0 179 134" fill="none" xmlns="http://www.w3.org/2000/svg">
<path d="M0 67V134H89.3333H178.667V67V-9.53674e-07H89.3333H0V67ZM92.392 31.5822C95.3779 32.5047 98.4366 35.2964 104.068 42.2391C106.496 45.2493 109.312 47.8225 113.803 51.1482C119.022 55.008 121.425 57.1928 123.295 59.7174C125.989 63.3587 126.645 66.1989 125.479 69.3304C124.703 71.4181 121.328 74.7438 118.464 76.2246C114.847 78.1181 109.53 80.2543 108.924 80.0359C108.802 80.0116 109.603 79.3562 110.72 78.6036C116.716 74.5982 119.168 72.1221 119.799 69.3304C120.066 68.2623 120.042 67.971 119.653 67.2428C118.682 65.3007 116.837 64.2083 114.07 63.917C112.419 63.7471 110.987 64.354 109.895 65.6649C109.021 66.733 107.758 69.8402 106.933 72.9475C106.593 74.2826 106.083 76.2004 105.792 77.1957C105.525 78.1909 105.161 79.6232 104.991 80.3514C104.238 83.6529 102.102 88.7993 100.184 91.8822C97.7569 95.8391 95.4264 98.3395 93.1688 99.4804C92.0279 100.063 91.6152 100.136 89.4547 100.136C87.1486 100.136 86.9301 100.087 85.0366 99.1891C82.075 97.8054 79.696 95.0138 77.317 90.2072C75.2779 86.1047 73.6029 78.9435 73.2145 72.8261C73.1417 71.6851 72.996 69.9859 72.9232 69.0391C72.8261 67.9225 72.8504 67.267 73.0203 67.1457C73.2873 67 73.4572 67.5583 73.6757 69.3062C74.1127 72.8504 76.4917 80.4728 78.0696 83.4344C79.2833 85.7163 79.4775 86.0319 79.696 86.2018C79.8174 86.2746 80.0844 86.6145 80.3029 86.9543C80.5214 87.2942 81.0312 88.0467 81.4196 88.6293C82.4877 90.2072 85.0851 92.7076 86.2504 93.2174C87.4884 93.7757 88.6293 93.8243 89.5518 93.3388C91.1297 92.5377 93.2417 89.4547 94.1399 86.663C94.9895 84.0656 95.6449 79.9388 95.6692 77.3656C95.6935 69.0634 92.6591 62.8489 87.3913 60.4942C83.3373 58.6978 77.2928 58.6007 69.6703 60.2272C67.8254 60.6399 63.8442 62.7518 62.2178 64.2083C58.7707 67.2913 58.5764 70.617 61.6594 74.1127C62.5576 75.1322 67.1214 78.5308 68.8935 79.4775C71.2482 80.7641 65.1551 78.6036 62.242 77.1228C56.7558 74.3312 54.3768 68.7236 56.513 63.6014C57.8239 60.5185 60.6641 57.8239 65.7377 54.8866C68.1895 53.4543 71.9522 51.925 77.1957 50.2257C87.0757 46.9728 88.3866 46.3902 90.3286 44.2783C91.7609 42.7004 92.0522 41.3409 91.3967 39.1562C90.4743 36.0246 87.7069 35.0779 84.3569 36.6801C82.1721 37.7482 78.8464 41.0011 76.8315 44.0598C75.8605 45.5163 75.3507 46.0989 75.3022 45.8076C75.1808 45.2007 75.642 43.8899 76.8801 41.3895C78.7493 37.5783 81.6623 34.1797 84.2841 32.7475C87.5127 30.9996 89.5518 30.7083 92.392 31.5822Z" fill="white"/>
<path d="M97.9511 46.0504C97.2956 47.9438 95.9605 49.9344 94.5283 51.1239C93.4116 52.0707 91.4696 52.9203 90.4985 52.9203C89.6732 52.9203 90.0616 53.2844 91.4938 53.8428C93.6786 54.6924 96.0333 56.5859 97.8297 58.9406C98.1696 59.3775 98.6793 60.033 98.9706 60.3971C99.2619 60.737 99.8688 61.7808 100.306 62.679C100.743 63.5772 101.155 64.3297 101.253 64.3297C101.325 64.3297 101.714 63.6015 102.078 62.7275C102.806 61.0283 104.384 58.8192 105.064 58.5765C105.282 58.4793 105.719 58.2366 106.035 57.9938C106.35 57.7511 107.346 57.3627 108.268 57.1199C109.215 56.9015 109.967 56.6344 109.967 56.5616C109.967 56.4645 109.166 55.8576 108.22 55.1779C106.108 53.6971 103.219 51.1967 102.272 50.0072C101.908 49.5217 101.447 48.9877 101.277 48.7935C100.573 47.9681 99.3348 46.196 98.9464 45.4435C98.7279 45.0308 98.5094 44.6667 98.4851 44.6667C98.4366 44.6667 98.1938 45.2978 97.9511 46.0504Z" fill="white"/>
</svg>
