<svg width="93" height="105" viewBox="0 0 93 105" fill="none" xmlns="http://www.w3.org/2000/svg">
<path d="M36.7883 0.162666C36.512 0.244003 36.1856 0.4338 36.0349 0.623589C35.8089 0.921829 34.4278 1.87078 29.1795 5.42256L27.7482 6.39863L27.6728 18.6265C27.6477 25.3776 27.5222 30.8815 27.4217 30.8815C26.8693 30.8544 22.525 29.2277 21.3448 28.5769C20.5914 28.1702 19.4363 27.2213 18.7834 26.4893L17.5781 25.1336V28.7667V32.427L18.909 32.8879C19.6372 33.1319 21.3699 33.5657 22.7259 33.864C24.107 34.1622 25.7644 34.6231 26.4424 34.8671C27.5975 35.328 27.6226 35.328 27.6226 36.521C27.6226 37.6326 27.5975 37.714 27.0702 37.5242C26.7437 37.4157 25.5384 37.0904 24.3581 36.8193C22.3492 36.3041 18.6578 35.3009 17.8292 35.0298C17.5027 34.9485 17.4776 35.2467 17.5278 37.0633L17.6032 39.2323L19.0345 39.639C19.813 39.883 21.1941 40.2084 22.0981 40.371C24.6344 40.832 26.1913 41.2115 26.9446 41.6453C27.5222 41.9436 27.6226 42.1876 27.6226 43.1094C27.6226 44.1397 27.5724 44.2211 27.0702 44.0584C25.7393 43.6788 23.3286 43.0823 20.9681 42.5943C19.587 42.2961 18.2561 41.9707 18.0301 41.8622C17.6283 41.6996 17.5781 41.8894 17.5781 43.8144V45.9834L19.5367 46.4443C20.5914 46.6883 21.9223 46.9324 22.4748 47.0137C24.2577 47.2848 25.7141 47.6373 26.6935 48.0982C27.5473 48.4778 27.6226 48.5862 27.6226 49.6165C27.6226 50.701 27.5975 50.7282 26.9446 50.5384C26.5428 50.457 25.0612 50.1317 23.6048 49.8334C22.1483 49.5352 20.265 49.1285 19.4112 48.9116C18.5574 48.6947 17.8041 48.5049 17.7036 48.5049C17.6283 48.5049 17.5781 49.4538 17.6283 50.5926C17.7287 53.0327 17.3269 52.7887 22.525 53.6563C24.3581 53.9546 26.2415 54.3613 26.7437 54.5782C27.5724 54.9578 27.6226 55.0662 27.6226 56.2049V57.425L26.6433 57.0726C26.1159 56.8557 24.2326 56.449 22.4497 56.1236C20.6668 55.8254 18.8336 55.5 18.4067 55.3916L17.5781 55.2018V57.2624C17.5781 58.862 17.6534 59.3229 17.9798 59.4585C18.1807 59.5398 19.6874 59.811 21.2945 60.0279C24.4335 60.4617 26.4675 60.8955 27.1957 61.3022C27.497 61.4648 27.6226 61.8715 27.6226 62.6036C27.6226 63.7694 27.4217 63.905 26.2666 63.417C25.915 63.2814 24.3581 62.9832 22.8012 62.7663C21.2443 62.5494 19.4363 62.2782 18.7834 62.1698L17.5781 61.98V64.0406C17.5781 66.4536 17.0758 66.1554 22.4497 66.8061C24.3832 67.0501 26.3419 67.4026 26.7939 67.6195C27.5473 67.9719 27.6226 68.1075 27.6226 69.0836C27.6226 70.3036 27.6477 70.2765 26.2415 69.9241C25.689 69.7885 23.7052 69.4631 21.847 69.2462C19.9888 69.0293 18.2561 68.7582 18.0301 68.6769C17.6283 68.5413 17.5781 68.7582 17.5781 70.7103C17.5781 71.9304 17.6785 72.9065 17.8041 72.9065C18.4821 72.9065 25.7895 73.7741 26.5679 73.9368C27.3966 74.1266 27.497 74.2621 27.5724 75.0484C27.6979 76.4583 27.5222 76.7023 26.5679 76.4311C26.1159 76.2956 24.2828 76.0516 22.4748 75.8889C20.6919 75.7262 18.8336 75.5364 18.4067 75.4551L17.5781 75.2924V77.4885V79.6847H18.6578C20.265 79.7118 25.8899 80.1727 26.819 80.3896C27.5724 80.5523 27.6226 80.6336 27.6226 81.7724V82.9925L26.5679 82.8298C25.7393 82.6942 19.0596 82.1791 17.779 82.1248C17.6534 82.1248 17.5781 83.0738 17.5781 84.2396V86.3545L20.2901 86.4087C21.7717 86.4358 24.0317 86.5442 25.3124 86.6256L27.6226 86.7883V88.0083V89.2013L22.9268 89.0386C20.3152 88.9302 18.0552 88.8217 17.9045 88.7404C17.6534 88.6862 17.5781 89.2013 17.5781 90.801V92.97H22.6003H27.6226V94.1901C27.6226 94.9763 27.5222 95.4101 27.3213 95.4373C27.1455 95.4373 24.8855 95.4373 22.299 95.4101L17.5781 95.383V97.0098V98.6637H27.497H37.416V49.3183C37.416 22.1783 37.3909 -7.62939e-06 37.3658 -7.62939e-06C37.3156 0.0270996 37.0645 0.0813293 36.7883 0.162666Z" fill="white"/>
<path d="M40.7055 5.17854L40.6804 10.2486L42.0364 10.7909C42.7646 11.0891 45.3511 11.767 47.7367 12.3092C53.8387 13.692 55.471 14.5596 56.827 17.2709C57.5552 18.7079 58.0323 21.6632 57.5552 21.6632C57.3794 21.6632 57.0279 21.148 56.7265 20.4973C55.471 17.8131 53.7634 16.9184 47.2847 15.4543C44.6229 14.8578 42.1117 14.18 41.71 13.936C41.2831 13.7191 40.9064 13.5293 40.8059 13.5293C40.7306 13.5293 40.6804 14.8036 40.6804 16.3762V19.223L41.5844 19.6297C42.0866 19.8466 44.5978 20.4702 47.1591 21.0125C49.7205 21.5276 52.4325 22.2325 53.1858 22.5308C55.019 23.2628 56.5257 24.9167 57.2288 26.9231C57.731 28.4143 57.957 30.8815 57.5803 30.8815C57.4548 30.8815 57.1786 30.3393 56.9274 29.6886C55.8225 26.7875 53.7885 25.6488 47.2093 24.266C44.648 23.7237 42.1368 23.1001 41.6095 22.8832L40.6553 22.4766L40.7306 25.3776L40.8059 28.3058L41.8104 28.6583C42.3628 28.8481 44.7484 29.3632 47.0838 29.797C53.7885 30.99 56.375 32.4812 57.3292 35.6534C58.1579 38.4189 57.8314 40.4524 56.9023 38.202C56.6763 37.6055 56.1239 36.7379 55.697 36.3041C54.1903 34.6502 52.6334 34.0809 47.0838 33.0506C44.7233 32.6168 42.4884 32.1558 42.1117 31.9932C40.7055 31.3967 40.6804 31.4509 40.6804 34.5147V37.3344L42.0113 37.6598C42.7144 37.8224 44.7986 38.202 46.5816 38.4731C50.9007 39.1781 52.0809 39.4763 53.8638 40.371C55.471 41.1844 56.6763 42.3774 57.3543 43.8144C57.7561 44.7091 57.9068 47.1493 57.5552 47.1493C57.4297 47.1493 57.0028 46.607 56.5759 45.9563C55.0943 43.7059 52.7338 42.7027 46.8578 41.8351C45.326 41.6182 43.6686 41.32 43.1915 41.1844C42.7144 41.0489 41.936 40.8591 41.5091 40.7777L40.6804 40.6422V43.4619V46.3088L42.0113 46.5799C42.7144 46.7426 44.6731 47.0408 46.3304 47.2848C53.0603 48.2067 54.9185 48.9116 56.7265 51.1348C57.6557 52.2465 57.7561 52.5176 57.7561 53.819C57.7561 54.6324 57.6557 55.2831 57.5552 55.2831C57.4297 55.2831 57.0279 54.8493 56.6512 54.3342C55.1445 52.3007 53.0352 51.5144 46.5816 50.5655C43.97 50.1859 41.5593 49.7792 41.2579 49.6979C40.6804 49.5352 40.6804 49.5623 40.6804 52.382C40.6804 55.0933 40.7055 55.2289 41.2579 55.3645C41.5593 55.4458 43.8946 55.7711 46.456 56.0965C53.0101 56.8828 54.8432 57.4521 56.8772 59.3772C57.6808 60.1363 57.7561 60.3532 57.7561 61.6817C57.7561 63.3356 57.5552 63.4712 56.5508 62.468C54.9939 60.8955 51.8801 59.8652 47.4856 59.4585C45.6775 59.2958 42.4633 58.862 41.3835 58.6451L40.6804 58.4824V61.3293V64.1761L41.5091 64.3388C41.936 64.4201 43.7942 64.6099 45.5771 64.7726C51.9805 65.3149 54.7679 65.9656 56.7265 67.3754C57.7059 68.0804 57.7561 68.1617 57.7561 69.5445C57.7561 70.629 57.6557 71.0086 57.4046 71.0086C57.2037 71.0086 56.9525 70.9001 56.8772 70.7374C56.2494 69.6529 51.4029 68.4871 45.7027 68.0262C43.5682 67.8635 41.5593 67.6466 41.2579 67.5652C40.6804 67.4297 40.6804 67.4568 40.6804 70.2765V73.1505L41.7602 73.2861C42.3377 73.3674 44.8238 73.5572 47.2847 73.7199C52.2065 74.0452 53.5123 74.2621 56.0737 75.1297L57.7561 75.6991L57.7812 76.8107C57.8063 77.9495 57.7561 78.6815 57.6306 78.8171C57.6054 78.8713 56.8521 78.6544 55.9983 78.329C53.9392 77.5699 50.3985 77.0547 45.9538 76.8378C43.9449 76.7565 41.936 76.6209 41.5091 76.5125L40.6804 76.3769V79.2509C40.6804 80.8234 40.7557 82.1248 40.8813 82.1248C48.4398 82.3689 55.8979 82.9111 57.3292 83.372C57.6808 83.4805 57.7561 83.833 57.7561 85.1615C57.7561 86.734 57.731 86.7883 57.1534 86.6256C55.7723 86.246 52.8594 85.9206 49.5949 85.7851C47.6613 85.7037 44.874 85.5682 43.3924 85.514L40.6804 85.3784V88.2252V91.0721H49.2182H57.7561V92.6989V94.3256H49.2182H40.6804V96.4947V98.6637H51.6038H62.5273L62.477 57.6419L62.4017 16.6473L61.799 15.0205C61.0457 13.0142 59.1121 10.8722 56.9525 9.7064C56.0988 9.24548 53.4118 8.16096 50.9258 7.26624C48.4649 6.39863 45.9538 5.36834 45.326 4.96165C44.0955 4.20248 41.7853 1.89789 41.1073 0.786263C40.7306 0.135551 40.7055 0.37957 40.7055 5.17854Z" fill="white"/>
<path d="M11.6516 26.8417C9.86874 28.0347 8.26161 29.1734 8.11094 29.3361C7.85983 29.6072 7.78449 37.3886 7.73427 64.1761L7.65894 98.6637H11.3754H15.0668V61.6546C15.0668 41.2929 15.0166 24.6456 14.9663 24.6456C14.9161 24.6456 13.4345 25.6217 11.6516 26.8417Z" fill="white"/>
<path d="M67.8759 43.8415C66.5953 44.682 65.3146 45.6038 65.0384 45.8478C64.5612 46.3088 64.5361 46.607 64.5612 72.4998V98.6637H67.4239H70.2866L70.3118 70.4663C70.3118 54.9578 70.2866 42.2689 70.2615 42.2689C70.2113 42.2961 69.1315 42.9739 67.8759 43.8415Z" fill="white"/>
<path d="M72.0695 45.2242C72.0695 48.4507 71.8687 48.2338 75.8111 49.1827C80.0801 50.1859 81.0845 50.8366 81.637 52.843C82.0388 54.2799 81.7374 54.524 80.9087 53.4665C79.9796 52.3007 79.1761 51.9211 75.8362 51.1348C74.2542 50.7553 72.7476 50.3757 72.5215 50.2672C72.1198 50.1046 72.0695 50.2672 72.0695 51.5958C72.0695 53.4394 72.0695 53.4394 75.7358 54.2257C79.0505 54.9306 80.2056 55.3916 80.8585 56.3134C81.8379 57.6419 81.1599 58.1842 79.5527 57.2895C79.1258 57.0454 77.4685 56.5574 75.8614 56.2321C74.2542 55.8796 72.7476 55.5 72.5215 55.4187C72.1198 55.256 72.0695 55.4187 72.0695 56.7472C72.0695 58.618 72.0695 58.618 75.9367 59.3229C79.3518 59.9465 80.8083 60.7057 81.4612 62.1698C81.6872 62.6849 81.863 63.2272 81.863 63.3899C81.863 63.8779 81.2352 63.7423 80.7581 63.173C80.0298 62.3053 78.8496 61.8444 75.9618 61.2751C74.43 60.9768 72.9484 60.6515 72.6471 60.543C72.0947 60.3803 72.0695 60.4346 72.0695 61.8987C72.0695 63.7423 71.9942 63.6881 75.9618 64.3659C79.7034 64.9895 80.8083 65.5318 81.5868 67.1314C81.9132 67.8093 81.9634 68.8395 81.6621 68.8395C81.5365 68.8395 81.185 68.5413 80.8585 68.1617C80.0801 67.267 78.6989 66.7519 75.7107 66.2638C74.3296 66.0469 72.9484 65.7758 72.6471 65.6945C72.0947 65.5318 72.0695 65.586 72.0695 67.023C72.0695 67.8635 72.17 68.6226 72.3207 68.704C72.4462 68.7853 73.7771 69.0293 75.2587 69.2462C80.0298 69.9241 81.411 70.6832 81.9132 72.8251C82.1141 73.6385 81.3859 73.6656 80.733 72.9065C80.1554 72.2015 78.4478 71.6593 75.7358 71.2797C74.5053 71.117 73.1744 70.9001 72.7727 70.8188L72.0695 70.6561V72.2015C72.0695 73.1776 72.1951 73.7741 72.396 73.8554C72.5467 73.9368 74.1538 74.1537 75.9116 74.3706C78.4981 74.6959 79.377 74.9399 80.4065 75.5364C81.8128 76.3498 82.0639 76.7836 81.6119 77.3801C81.2603 77.8139 80.3563 77.9495 80.3563 77.5428C80.3563 77.109 78.8747 76.7294 75.5349 76.2956C73.8022 76.0787 72.2955 75.8889 72.1951 75.8889C72.1198 75.8889 72.0695 76.5938 72.1198 77.4343L72.1951 79.0069L75.7107 79.3593C80.2056 79.8203 81.7374 80.4438 81.9132 81.9622C82.0388 83.0738 81.9885 83.1009 80.8836 82.5044C80.0298 82.0435 77.1169 81.4741 74.0282 81.1759L72.0695 80.9861V82.4773C72.0695 84.2125 72.17 84.2939 74.3045 84.2939C76.0623 84.2939 79.6783 84.7548 80.9087 85.1615C81.5365 85.3513 81.8379 85.6224 81.9383 86.0833C82.1392 87.2492 81.8379 87.3847 79.9545 86.9238C79.0003 86.6798 76.8407 86.4087 75.1582 86.3002L72.0695 86.1104V87.6288C72.0695 89.0928 72.0695 89.12 72.8982 89.2555C73.3251 89.3098 74.8569 89.3911 76.2883 89.4182C78.6487 89.4724 81.5365 89.8249 81.7876 90.0689C81.8379 90.1503 81.9132 90.5298 81.9383 90.9636C81.9885 91.6686 81.9132 91.7499 81.2352 91.6957C80.8334 91.6686 78.5985 91.5601 76.2883 91.4517L72.0695 91.2619V92.7802V94.3256H76.9663C80.7079 94.3256 81.863 94.407 81.863 94.651C81.863 94.8408 81.9383 95.2746 82.0136 95.5999L82.1643 96.2235L77.1923 96.2778L72.1951 96.3591L72.1198 97.4978L72.0444 98.6637H78.3223H84.6252V75.7262C84.6252 60.1092 84.5499 52.4363 84.349 51.65C83.9974 50.1588 82.8674 48.6676 81.5616 47.9355C81.0092 47.6373 79.4523 47.0137 78.1214 46.5528C75.0327 45.4954 74.4551 45.17 73.1493 43.7059L72.0695 42.513V45.2242Z" fill="white"/>
<path d="M0 102.731V104.357H46.2049H92.4098V102.893C92.4098 101.456 92.3847 101.429 91.6063 101.294C91.1543 101.212 70.362 101.131 45.4013 101.104L0 101.077V102.731Z" fill="white"/>
</svg>
